<svg width="24" height="23" viewBox="0 0 24 23" fill="none" xmlns="http://www.w3.org/2000/svg">
<path d="M21.5559 5.557C23.0418 8.13068 23.7848 9.41752 23.8546 10.8247C23.8642 11.0175 23.8642 11.2105 23.8546 11.4033C23.7848 12.8105 23.0418 14.0973 21.5559 16.671C20.07 19.2447 19.327 20.5315 18.1433 21.2956C17.9812 21.4003 17.814 21.4968 17.6423 21.5849C16.3887 22.228 14.9027 22.228 11.9309 22.228C8.95908 22.228 7.47317 22.228 6.21955 21.5849C6.04786 21.4968 5.88065 21.4003 5.71854 21.2956C4.53478 20.5315 3.79183 19.2447 2.30591 16.671C0.819999 14.0973 0.0770425 12.8105 0.00717625 11.4033C-0.00239209 11.2105 -0.00239208 11.0175 0.00717627 10.8247C0.0770427 9.41752 0.82 8.13068 2.30591 5.557C3.79183 2.98332 4.53478 1.69648 5.71854 0.932363C5.88066 0.827716 6.04787 0.731177 6.21955 0.643103C7.47317 -1.19209e-07 8.95908 -1.29786e-07 11.9309 1.16693e-10C14.9027 1.30019e-07 16.3887 2.38419e-07 17.6423 0.643104C17.814 0.731178 17.9812 0.827717 18.1433 0.932364C19.327 1.69648 20.07 2.98332 21.5559 5.557Z" fill="#42C83C"/>
<path d="M9.6163 10.0685C9.85321 9.49319 10.3101 9.03629 10.8855 8.79938L14.0085 7.51343C14.9674 7.11857 15.9263 8.0775 15.5315 9.03643L14.2455 12.1594C14.0086 12.7348 13.5517 13.1917 12.9764 13.4286L9.85334 14.7146C8.89442 15.1094 7.93549 14.1505 8.33035 13.1916L9.6163 10.0685Z" fill="#42C83C"/>
<path d="M9.37706 9.64623C9.61397 9.07087 10.0709 8.61397 10.6462 8.37706L13.7692 7.09111C14.7282 6.69626 15.6871 7.65519 15.2922 8.61411L14.0063 11.7371C13.7694 12.3125 13.3125 12.7694 12.7371 13.0063L9.61411 14.2923C8.65518 14.6871 7.69626 13.7282 8.09111 12.7692L9.37706 9.64623Z" fill="white"/>
</svg>
